<svg width="30" height="33" viewBox="0 0 30 33" fill="none" xmlns="http://www.w3.org/2000/svg">
<path d="M0 16.1089C0 7.21004 6.71371 0 15 0C23.2863 0 30 7.21004 30 16.1089C30 25.0078 23.2863 32.2178 15 32.2178C6.71371 32.2178 0 25.0078 0 16.1089ZM17.6613 23.6437V16.1089H21.9496C22.5968 16.1089 22.9234 15.2645 22.4637 14.7773L15.5141 7.35294C15.2298 7.04765 14.7762 7.04765 14.4919 7.35294L7.53629 14.7773C7.07661 15.271 7.40323 16.1089 8.0504 16.1089H12.3387V23.6437C12.3387 24.0724 12.6653 24.4232 13.0645 24.4232H16.9355C17.3347 24.4232 17.6613 24.0724 17.6613 23.6437Z" fill="#9D8E7E"/>
</svg>
